<svg width="652" height="151" viewBox="0 0 652 151" fill="none" xmlns="http://www.w3.org/2000/svg">
<rect width="652" height="151" rx="40" fill="#513EC1"/>
<path d="M64.48 102.84C69.52 102.84 73.08 101.96 75.16 100.2C77.24 98.44 78.28 96.04 78.28 93C78.28 91.24 77.96 89.76 77.32 88.56C76.68 87.28 75.44 86.12 73.6 85.08C71.76 83.96 69.04 82.88 65.44 81.84L57.64 79.32C50.68 77.08 45.68 74.16 42.64 70.56C39.6 66.88 38.08 62.08 38.08 56.16C38.08 52.16 39.16 48.52 41.32 45.24C43.48 41.88 46.68 39.16 50.92 37.08C55.16 35 60.4 33.96 66.64 33.96C71.04 33.96 75.08 34.28 78.76 34.92C82.52 35.48 86.56 36.24 90.88 37.2L88.96 50.28C84.08 49.08 79.76 48.2 76 47.64C72.32 47 69.08 46.68 66.28 46.68C61.56 46.68 58.24 47.48 56.32 49.08C54.4 50.6 53.44 52.6 53.44 55.08C53.44 56.76 53.76 58.28 54.4 59.64C55.04 61 56.24 62.24 58 63.36C59.84 64.48 62.52 65.56 66.04 66.6L74.08 69.12C81.2 71.28 86.24 74.08 89.2 77.52C92.24 80.88 93.76 85.68 93.76 91.92C93.76 96.48 92.64 100.56 90.4 104.16C88.16 107.76 84.84 110.6 80.44 112.68C76.12 114.68 70.68 115.68 64.12 115.68C59.64 115.68 55.08 115.2 50.44 114.24C45.8 113.36 40.76 112 35.32 110.16L38.32 97.2C43.84 99.04 48.76 100.44 53.08 101.4C57.4 102.36 61.2 102.84 64.48 102.84ZM115.271 90.96V70.2H97.2709V57.12H115.511V37.32H130.271V57.12H153.431V70.2H130.631V89.28C130.631 92.08 130.911 94.28 131.471 95.88C132.031 97.48 133.031 98.64 134.471 99.36C135.911 100 137.951 100.4 140.591 100.56L156.431 101.52L155.231 114.72L136.871 114C131.031 113.68 126.551 112.84 123.431 111.48C120.311 110.04 118.151 107.68 116.951 104.4C115.831 101.12 115.271 96.64 115.271 90.96ZM190.422 115.8C184.502 115.8 179.222 114.56 174.582 112.08C170.022 109.52 166.462 105.96 163.902 101.4C161.342 96.84 160.062 91.56 160.062 85.56C160.062 79.8 161.342 74.64 163.902 70.08C166.542 65.44 170.182 61.84 174.822 59.28C179.462 56.64 184.822 55.32 190.902 55.32C196.902 55.32 202.182 56.6 206.742 59.16C211.302 61.72 214.862 65.28 217.422 69.84C219.982 74.32 221.262 79.56 221.262 85.56C221.262 91.4 219.942 96.6 217.302 101.16C214.742 105.72 211.142 109.32 206.502 111.96C201.862 114.52 196.502 115.8 190.422 115.8ZM190.662 102.96C195.062 102.96 198.622 101.56 201.342 98.76C204.062 95.96 205.422 91.6 205.422 85.68C205.422 81.84 204.822 78.64 203.622 76.08C202.422 73.52 200.702 71.56 198.462 70.2C196.302 68.84 193.702 68.16 190.662 68.16C187.702 68.16 185.142 68.8 182.982 70.08C180.822 71.36 179.102 73.28 177.822 75.84C176.542 78.4 175.902 81.64 175.902 85.56C175.902 91.24 177.222 95.56 179.862 98.52C182.502 101.48 186.102 102.96 190.662 102.96ZM256.933 68.52C253.573 68.52 250.613 69.24 248.053 70.68C245.493 72.12 243.493 74.12 242.053 76.68C240.693 79.24 240.013 82.16 240.013 85.44C240.013 89.04 240.693 92.12 242.053 94.68C243.493 97.24 245.413 99.24 247.813 100.68C250.213 102.04 252.893 102.72 255.853 102.72C258.733 102.72 261.693 102.32 264.733 101.52C267.853 100.64 271.853 98.84 276.733 96.12L283.573 106.56C277.733 110.16 272.613 112.6 268.213 113.88C263.813 115.08 259.253 115.68 254.533 115.68C248.453 115.68 243.093 114.48 238.453 112.08C233.893 109.6 230.293 106.08 227.653 101.52C225.093 96.96 223.813 91.64 223.813 85.56C223.813 80.04 225.213 75 228.013 70.44C230.893 65.88 234.773 62.28 239.653 59.64C244.533 56.92 250.053 55.56 256.213 55.56C258.853 55.56 261.493 55.8 264.133 56.28C266.773 56.68 269.613 57.52 272.653 58.8C275.693 60.08 279.173 62 283.093 64.56L276.013 75.6C272.813 73.44 270.093 71.88 267.853 70.92C265.693 69.96 263.733 69.32 261.973 69C260.213 68.68 258.533 68.52 256.933 68.52ZM305.804 28.8V114H290.444V28.8H305.804ZM304.844 83.88L329.804 57.12H348.884V57.36L317.684 88.44L304.844 83.88ZM302.924 84.12L304.844 83.88L317.444 80.16L349.124 113.76V114H329.204L302.924 84.12ZM402.315 48.12C400.075 47.8 398.155 47.6 396.555 47.52C395.035 47.36 393.395 47.28 391.635 47.28C385.875 47.28 380.955 48.28 376.875 50.28C372.875 52.2 369.795 55.2 367.635 59.28C365.555 63.28 364.515 68.4 364.515 74.64C364.515 84.64 366.355 91.88 370.035 96.36C373.715 100.76 379.595 102.96 387.675 102.96C389.515 102.96 391.395 102.8 393.315 102.48C395.315 102.16 397.475 101.6 399.795 100.8L394.755 108.48V75L402.435 81.72H379.755V69.84H409.395V112.56C405.475 113.6 401.555 114.4 397.635 114.96C393.795 115.52 389.915 115.8 385.995 115.8C373.915 115.8 364.675 112.48 358.275 105.84C351.875 99.12 348.675 88.88 348.675 75.12C348.675 66.72 350.275 59.44 353.475 53.28C356.755 47.12 361.515 42.4 367.755 39.12C373.995 35.84 381.595 34.2 390.555 34.2C392.795 34.2 394.835 34.32 396.675 34.56C398.515 34.72 400.795 35 403.515 35.4L402.315 48.12ZM438.466 57.12L439.426 75.48H440.266V114H424.906V57.12H438.466ZM436.666 89.76L438.706 74.76C441.586 70.92 444.066 67.88 446.146 65.64C448.226 63.4 450.106 61.72 451.786 60.6C453.466 59.4 455.066 58.6 456.586 58.2C458.186 57.8 459.866 57.52 461.626 57.36L472.306 56.64L473.626 72.12L462.946 73.08C460.306 73.24 458.066 73.56 456.226 74.04C454.466 74.44 452.706 75.2 450.946 76.32C449.266 77.36 447.306 78.92 445.066 81C442.906 83.08 440.106 86 436.666 89.76ZM414.466 57.12H434.026V70.2H414.466V57.12ZM412.066 101.04H456.106V114H412.066V101.04ZM499.217 57.12H514.697V114H499.217V57.12ZM482.657 57.12H507.497V70.2H482.657V57.12ZM480.257 101.04H533.897V114H480.257V101.04ZM506.417 43.8C502.817 43.8 500.017 43 498.017 41.4C496.017 39.72 495.017 37.32 495.017 34.2C495.017 31.4 496.017 29.12 498.017 27.36C500.097 25.52 502.937 24.6 506.537 24.6C510.217 24.6 513.017 25.44 514.937 27.12C516.937 28.72 517.937 31.12 517.937 34.32C517.937 37.36 516.897 39.72 514.817 41.4C512.737 43 509.937 43.8 506.417 43.8ZM582.048 114L580.488 102.84H580.008V28.8H595.368V114H582.048ZM561.768 115.2C557.208 115.2 553.048 114.12 549.288 111.96C545.608 109.72 542.648 106.48 540.408 102.24C538.168 98 537.048 92.84 537.048 86.76C537.048 80.84 538.288 75.6 540.768 71.04C543.328 66.48 546.768 62.92 551.088 60.36C555.488 57.8 560.528 56.52 566.208 56.52C570.448 56.52 574.208 57.24 577.488 58.68C580.848 60.04 584.328 62.88 587.928 67.2L584.208 75.96C582.128 73.96 580.208 72.48 578.448 71.52C576.768 70.48 575.168 69.8 573.648 69.48C572.128 69.08 570.648 68.88 569.208 68.88C565.848 68.88 562.968 69.6 560.568 71.04C558.168 72.48 556.288 74.44 554.928 76.92C553.648 79.4 553.008 82.32 553.008 85.68C553.008 89.2 553.608 92.24 554.808 94.8C556.088 97.36 557.808 99.32 559.968 100.68C562.208 101.96 564.728 102.6 567.528 102.6C569.048 102.6 570.528 102.36 571.968 101.88C573.488 101.4 575.088 100.64 576.768 99.6C578.448 98.56 580.288 97.12 582.288 95.28L582.408 104.88C579.208 108.64 575.928 111.32 572.568 112.92C569.288 114.44 565.688 115.2 561.768 115.2Z" fill="white"/>
</svg>
