<svg width="150" height="150" viewBox="0 0 150 150" fill="none" xmlns="http://www.w3.org/2000/svg">
<rect width="150" height="150" rx="40" fill="#513EC1"/>
<path d="M42.48 105.84C47.52 105.84 51.08 104.96 53.16 103.2C55.24 101.44 56.28 99.04 56.28 96C56.28 94.24 55.96 92.76 55.32 91.56C54.68 90.28 53.44 89.12 51.6 88.08C49.76 86.96 47.04 85.88 43.44 84.84L35.64 82.32C28.68 80.08 23.68 77.16 20.64 73.56C17.6 69.88 16.08 65.08 16.08 59.16C16.08 55.16 17.16 51.52 19.32 48.24C21.48 44.88 24.68 42.16 28.92 40.08C33.16 38 38.4 36.96 44.64 36.96C49.04 36.96 53.08 37.28 56.76 37.92C60.52 38.48 64.56 39.24 68.88 40.2L66.96 53.28C62.08 52.08 57.76 51.2 54 50.64C50.32 50 47.08 49.68 44.28 49.68C39.56 49.68 36.24 50.48 34.32 52.08C32.4 53.6 31.44 55.6 31.44 58.08C31.44 59.76 31.76 61.28 32.4 62.64C33.04 64 34.24 65.24 36 66.36C37.84 67.48 40.52 68.56 44.04 69.6L52.08 72.12C59.2 74.28 64.24 77.08 67.2 80.52C70.24 83.88 71.76 88.68 71.76 94.92C71.76 99.48 70.64 103.56 68.4 107.16C66.16 110.76 62.84 113.6 58.44 115.68C54.12 117.68 48.68 118.68 42.12 118.68C37.64 118.68 33.08 118.2 28.44 117.24C23.8 116.36 18.76 115 13.32 113.16L16.32 100.2C21.84 102.04 26.76 103.44 31.08 104.4C35.4 105.36 39.2 105.84 42.48 105.84ZM128.671 51.12C126.431 50.8 124.511 50.6 122.911 50.52C121.391 50.36 119.751 50.28 117.991 50.28C112.231 50.28 107.311 51.28 103.231 53.28C99.2309 55.2 96.1509 58.2 93.9909 62.28C91.9109 66.28 90.8709 71.4 90.8709 77.64C90.8709 87.64 92.7109 94.88 96.3909 99.36C100.071 103.76 105.951 105.96 114.031 105.96C115.871 105.96 117.751 105.8 119.671 105.48C121.671 105.16 123.831 104.6 126.151 103.8L121.111 111.48V78L128.791 84.72H106.111V72.84H135.751V115.56C131.831 116.6 127.911 117.4 123.991 117.96C120.151 118.52 116.271 118.8 112.351 118.8C100.271 118.8 91.0309 115.48 84.6309 108.84C78.2309 102.12 75.0309 91.88 75.0309 78.12C75.0309 69.72 76.6309 62.44 79.8309 56.28C83.1109 50.12 87.8709 45.4 94.1109 42.12C100.351 38.84 107.951 37.2 116.911 37.2C119.151 37.2 121.191 37.32 123.031 37.56C124.871 37.72 127.151 38 129.871 38.4L128.671 51.12Z" fill="white"/>
</svg>
